# xmcd
#
# Track frame offsets:
#	150
#	14365
#	30637
#	41510
#	58845
#	71187
#	85910
#	101687
#	117735
#	130687
#
# Disc length: 1894 seconds
#
# Revision: 3
# Processed by: cddbd v1.5.2PL0 Copyright (c) Steve Scherf et al.
# Submitted via: EZCDAudioConverter 6.0.2.1
#
DISCID=8b07640a
DTITLE=Various Artist - Up Country
DYEAR=1990
DGENRE=Country
TTITLE0=Lacy J Dalton - 16th Avenue
TTITLE1=Exile - She's A Miracle
TTITLE2=Steve Earle - A Little Bit In Love
TTITLE3=Marty Stuart - Honky Tonker
TTITLE4=Mark Gray - Diamond In The Dust
TTITLE5=Ronnie McDowell - Love Talks
TTITLE6=Ricky Skaggs - Honey (Open That Door)
TTITLE7=TG Sheppard - Fooled Around And Fell In Love
TTITLE8=The O'Kanes - Oh Darlin' (Why Don't You Care For Me No More)
TTITLE9=Sweethearts of the Rodeo - Hey Doll Baby
EXTD=
EXTT0=
EXTT1=
EXTT2=
EXTT3=
EXTT4=
EXTT5=
EXTT6=
EXTT7=
EXTT8=
EXTT9=
PLAYORDER=
